<svg width="934" height="161" viewBox="0 0 934 161" fill="none" xmlns="http://www.w3.org/2000/svg">
<path d="M730.148 158V4.7998H730.348L812.148 120.8L799.748 118L881.348 4.7998H881.748V158H852.748V70.1998L854.548 85.1998L804.748 156H804.348L753.148 85.1998L758.148 71.3998V158H730.148Z" fill="#101010"/>
<path d="M571.304 160.4C563.171 160.4 555.904 158.534 549.504 154.8C543.104 150.934 538.038 145.4 534.304 138.2C530.704 131 528.904 122.467 528.904 112.6C528.904 102.734 530.904 94.3335 534.904 87.4002C538.904 80.4669 544.371 75.2002 551.304 71.6002C558.238 68.0002 566.104 66.2002 574.904 66.2002C580.504 66.2002 585.838 67.0669 590.904 68.8002C596.104 70.5335 600.438 73.2002 603.904 76.8002V85.6002V0.200195H631.704V158H603.704V141L605.904 147C601.371 150.734 596.304 153.934 590.704 156.6C585.104 159.134 578.638 160.4 571.304 160.4ZM580.504 136.8C584.238 136.8 587.504 136.334 590.304 135.4C593.238 134.334 595.771 132.867 597.904 131C600.171 129 602.104 126.534 603.704 123.6V102.2C602.638 99.2669 600.971 96.8002 598.704 94.8002C596.571 92.6669 593.904 91.0669 590.704 90.0002C587.638 88.8002 584.238 88.2002 580.504 88.2002C576.371 88.2002 572.504 89.2669 568.904 91.4002C565.438 93.4002 562.638 96.2002 560.504 99.8002C558.371 103.4 557.304 107.534 557.304 112.2C557.304 116.867 558.371 121.067 560.504 124.8C562.638 128.534 565.438 131.467 568.904 133.6C572.504 135.734 576.371 136.8 580.504 136.8Z" fill="#101010"/>
<path d="M468.157 160.4C457.491 160.4 448.424 158.4 440.957 154.4C433.624 150.4 428.024 144.867 424.157 137.8C420.291 130.734 418.357 122.6 418.357 113.4C418.357 104.6 420.624 96.6671 425.157 89.6004C429.691 82.5337 435.757 76.9337 443.357 72.8004C450.957 68.5337 459.424 66.4004 468.757 66.4004C481.291 66.4004 491.557 70.0671 499.557 77.4004C507.691 84.6004 512.957 95.0671 515.357 108.8L447.357 130.4L441.157 115.2L490.357 98.6004L484.557 101.2C483.491 97.7337 481.557 94.7337 478.757 92.2004C476.091 89.5337 472.024 88.2004 466.557 88.2004C462.424 88.2004 458.757 89.2004 455.557 91.2004C452.491 93.0671 450.091 95.8004 448.357 99.4004C446.757 102.867 445.957 107 445.957 111.8C445.957 117.267 446.957 121.867 448.957 125.6C450.957 129.2 453.691 131.934 457.157 133.8C460.624 135.667 464.491 136.6 468.757 136.6C471.824 136.6 474.757 136.067 477.557 135C480.491 133.934 483.357 132.534 486.157 130.8L498.557 151.6C493.891 154.267 488.824 156.4 483.357 158C478.024 159.6 472.957 160.4 468.157 160.4Z" fill="#101010"/>
<path d="M372.233 70.6002L374.833 94.6002L374.233 91.0002C376.767 85.8002 380.233 81.4002 384.633 77.8002C389.033 74.0669 393.367 71.2002 397.633 69.2002C402.033 67.2002 405.367 66.2002 407.633 66.2002L406.233 94.2002C399.7 93.4002 394.1 94.4669 389.433 97.4002C384.767 100.334 381.167 104.2 378.633 109C376.1 113.8 374.833 118.734 374.833 123.8V158H347.033V70.6002H372.233Z" fill="#101010"/>
<path d="M276.522 32.2002H304.522V70.2002H325.722V92.0002H304.522V158H276.522V92.0002H262.922V70.2002H276.522V32.2002Z" fill="#101010"/>
<path d="M149.572 158V0.200195H176.972V88.2002L176.772 84.8002C179.839 79.3335 184.172 74.9335 189.772 71.6002C195.372 68.1335 202.239 66.4002 210.372 66.4002C218.639 66.4002 225.506 68.8669 230.972 73.8002C236.572 78.6002 239.439 84.8669 239.572 92.6002V158H211.572V103C211.439 99.1335 210.372 96.0669 208.372 93.8002C206.506 91.4002 203.306 90.2002 198.772 90.2002C194.506 90.2002 190.772 91.6002 187.572 94.4002C184.372 97.2002 181.906 101 180.172 105.8C178.439 110.6 177.572 116.134 177.572 122.4V158H149.572Z" fill="#101010"/>
<path d="M29 103.6C29 108.266 30.4 112.733 33.2 117C36 121.266 39.6667 124.733 44.2 127.4C48.8667 130.066 53.9333 131.4 59.4 131.4C65.4 131.4 70.7333 130.066 75.4 127.4C80.0667 124.733 83.7333 121.266 86.4 117C89.2 112.733 90.6 108.266 90.6 103.6V10.7998H119.2V104.2C119.2 115 116.533 124.6 111.2 133C105.867 141.266 98.6667 147.8 89.6 152.6C80.5333 157.266 70.4667 159.6 59.4 159.6C48.4667 159.6 38.4667 157.266 29.4 152.6C20.4667 147.8 13.3333 141.266 8 133C2.66667 124.6 0 115 0 104.2V10.7998H29V103.6Z" fill="#101010"/>
<path d="M904.625 143.6C904.625 139.467 906.092 136 909.025 133.2C912.092 130.4 915.425 129 919.025 129C922.358 129 925.492 130.4 928.425 133.2C931.492 136 933.025 139.467 933.025 143.6C933.025 148 931.492 151.533 928.425 154.2C925.492 156.733 922.358 158 919.025 158C915.425 158 912.092 156.733 909.025 154.2C906.092 151.533 904.625 148 904.625 143.6Z" fill="#09B989"/>
</svg>
