<svg width="120" height="19" viewBox="0 0 120 19" fill="none" xmlns="http://www.w3.org/2000/svg">
<path d="M3.95 12.016C3.95 12.5293 4.104 13.0207 4.412 13.49C4.72 13.9593 5.12333 14.3407 5.622 14.634C6.13533 14.9273 6.69267 15.074 7.294 15.074C7.954 15.074 8.54067 14.9273 9.054 14.634C9.56733 14.3407 9.97067 13.9593 10.264 13.49C10.572 13.0207 10.726 12.5293 10.726 12.016V1.808H13.872V12.082C13.872 13.27 13.5787 14.326 12.992 15.25C12.4053 16.1593 11.6133 16.878 10.616 17.406C9.61867 17.9193 8.51133 18.176 7.294 18.176C6.09133 18.176 4.99133 17.9193 3.994 17.406C3.01133 16.878 2.22667 16.1593 1.64 15.25C1.05333 14.326 0.76 13.27 0.76 12.082V1.808H3.95V12.016ZM17.2129 18V0.641999H20.2269V10.322L20.2049 9.948C20.5422 9.34667 21.0189 8.86267 21.6349 8.496C22.2509 8.11467 23.0062 7.924 23.9009 7.924C24.8102 7.924 25.5656 8.19533 26.1669 8.738C26.7829 9.266 27.0982 9.95533 27.1129 10.806V18H24.0329V11.95C24.0182 11.5247 23.9009 11.1873 23.6809 10.938C23.4756 10.674 23.1236 10.542 22.6249 10.542C22.1556 10.542 21.7449 10.696 21.3929 11.004C21.0409 11.312 20.7696 11.73 20.5789 12.258C20.3882 12.786 20.2929 13.3947 20.2929 14.084V18H17.2129ZM31.1774 4.162H34.2574V8.342H36.5894V10.74H34.2574V18H31.1774V10.74H29.6814V8.342H31.1774V4.162ZM41.7056 8.386L41.9916 11.026L41.9256 10.63C42.2043 10.058 42.5856 9.574 43.0696 9.178C43.5536 8.76733 44.0303 8.452 44.4996 8.232C44.9836 8.012 45.3503 7.902 45.5996 7.902L45.4456 10.982C44.7269 10.894 44.1109 11.0113 43.5976 11.334C43.0843 11.6567 42.6883 12.082 42.4096 12.61C42.1309 13.138 41.9916 13.6807 41.9916 14.238V18H38.9336V8.386H41.7056ZM52.2574 18.264C51.084 18.264 50.0867 18.044 49.2654 17.604C48.4587 17.164 47.8427 16.5553 47.4174 15.778C46.992 15.0007 46.7794 14.106 46.7794 13.094C46.7794 12.126 47.0287 11.2533 47.5274 10.476C48.026 9.69867 48.6934 9.08267 49.5294 8.628C50.3654 8.15867 51.2967 7.924 52.3234 7.924C53.702 7.924 54.8314 8.32733 55.7114 9.134C56.606 9.926 57.1854 11.0773 57.4494 12.588L49.9694 14.964L49.2874 13.292L54.6994 11.466L54.0614 11.752C53.944 11.3707 53.7314 11.0407 53.4234 10.762C53.13 10.4687 52.6827 10.322 52.0814 10.322C51.6267 10.322 51.2234 10.432 50.8714 10.652C50.534 10.8573 50.27 11.158 50.0794 11.554C49.9034 11.9353 49.8154 12.39 49.8154 12.918C49.8154 13.5193 49.9254 14.0253 50.1454 14.436C50.3654 14.832 50.666 15.1327 51.0474 15.338C51.4287 15.5433 51.854 15.646 52.3234 15.646C52.6607 15.646 52.9834 15.5873 53.2914 15.47C53.614 15.3527 53.9294 15.1987 54.2374 15.008L55.6014 17.296C55.088 17.5893 54.5307 17.824 53.9294 18C53.3427 18.176 52.7854 18.264 52.2574 18.264ZM63.6035 18.264C62.7088 18.264 61.9095 18.0587 61.2055 17.648C60.5015 17.2227 59.9442 16.614 59.5335 15.822C59.1375 15.03 58.9395 14.0913 58.9395 13.006C58.9395 11.9207 59.1595 10.9967 59.5995 10.234C60.0395 9.47133 60.6408 8.892 61.4035 8.496C62.1662 8.1 63.0315 7.902 63.9995 7.902C64.6155 7.902 65.2022 7.99733 65.7595 8.188C66.3315 8.37867 66.8082 8.672 67.1895 9.068V10.036V0.641999H70.2475V18H67.1675V16.13L67.4095 16.79C66.9108 17.2007 66.3535 17.5527 65.7375 17.846C65.1215 18.1247 64.4102 18.264 63.6035 18.264ZM64.6155 15.668C65.0262 15.668 65.3855 15.6167 65.6935 15.514C66.0162 15.3967 66.2948 15.2353 66.5295 15.03C66.7788 14.81 66.9915 14.5387 67.1675 14.216V11.862C67.0502 11.5393 66.8668 11.268 66.6175 11.048C66.3828 10.8133 66.0895 10.6373 65.7375 10.52C65.4002 10.388 65.0262 10.322 64.6155 10.322C64.1608 10.322 63.7355 10.4393 63.3395 10.674C62.9582 10.894 62.6502 11.202 62.4155 11.598C62.1808 11.994 62.0635 12.4487 62.0635 12.962C62.0635 13.4753 62.1808 13.9373 62.4155 14.348C62.6502 14.7587 62.9582 15.0813 63.3395 15.316C63.7355 15.5507 64.1608 15.668 64.6155 15.668ZM97.4904 18V1.148H97.5124L106.51 13.908L105.146 13.6L114.122 1.148H114.166V18H110.976V8.342L111.174 9.992L105.696 17.78H105.652L100.02 9.992L100.57 8.474V18H97.4904Z" fill="#0A0A0A"/>
<path d="M88.3803 1.478C87.339 4.30867 86.2977 7.132 85.2563 9.948C84.215 12.764 83.1737 15.5873 82.1323 18.418H79.3603C80.4017 15.5873 81.443 12.764 82.4843 9.948C83.5257 7.132 84.567 4.30867 85.6083 1.478H88.3803ZM116.592 16.416C116.592 15.9613 116.753 15.58 117.076 15.272C117.413 14.964 117.78 14.81 118.176 14.81C118.542 14.81 118.887 14.964 119.21 15.272C119.547 15.58 119.716 15.9613 119.716 16.416C119.716 16.9 119.547 17.2887 119.21 17.582C118.887 17.8607 118.542 18 118.176 18C117.78 18 117.413 17.8607 117.076 17.582C116.753 17.2887 116.592 16.9 116.592 16.416Z" fill="#09B989"/>
</svg>
