<svg width="100" height="34" viewBox="0 0 100 34" fill="none" xmlns="http://www.w3.org/2000/svg">
<path d="M8.54856 13.9535C7.04605 13.77 5.2943 13.4804 3.70456 12.7283C2.16288 11.9997 1.01464 10.5244 0.63189 8.7811C0.272284 7.14392 0.647911 5.50134 1.66264 4.27435C3.84164 1.64047 6.96416 2.37271 9.71995 3.01678C10.2896 3.14992 10.8362 3.27765 11.3595 3.3748C13.8465 3.63387 16.3602 3.65726 18.8276 3.19669C20.4939 2.88545 21.9519 2.34572 23.6716 2.42308L23.7606 3.43957C22.4895 3.382 21.2558 3.68245 19.9509 4.00089C19.6056 4.08545 19.2548 4.17001 18.9024 4.24917C17.0438 4.54962 15.1906 4.66476 13.3053 4.55861C12.0182 4.48485 10.7418 4.32653 9.48852 4.03328C6.90185 3.42698 4.22795 2.80089 2.45484 4.94362C1.64662 5.92053 1.34932 7.23747 1.6395 8.55801C1.95282 9.9883 2.88922 11.1955 4.1425 11.7874C5.60051 12.4764 7.25077 12.7481 8.67318 12.9226L8.54856 13.9535Z" fill="#101010"/>
<path d="M6.07777 33.2123C4.6251 33.2123 3.15463 32.642 2.09184 31.6579C1.13942 30.7745 0.498535 29.2219 0.498535 27.7952C0.498535 26.4477 1.02192 25.1613 2.05267 23.9739L19.4028 3.98589C20.2288 3.03596 21.4126 2.47104 22.7371 2.39908C24.2859 2.31272 25.8881 2.89203 27.0221 3.94631C27.9746 4.82967 28.6154 6.38229 28.6154 7.80898C28.6154 9.1565 28.0921 10.4429 27.0613 11.6303L9.71121 31.6183C8.88519 32.5682 7.70133 33.1331 6.37685 33.2051C6.27893 33.2087 6.17924 33.2123 6.07777 33.2123ZM20.1772 4.67135L2.82707 24.6594C1.95476 25.6651 1.52929 26.6905 1.52929 27.7952C1.52929 28.9304 2.04733 30.2024 2.78791 30.8896C3.72253 31.7568 5.04346 32.23 6.32166 32.1634C7.06045 32.122 8.11435 31.8755 8.93681 30.9292L26.2869 10.9412C27.161 9.93552 27.5847 8.91003 27.5847 7.80538C27.5847 6.67015 27.0666 5.39818 26.3261 4.71093C25.3914 3.84376 24.0687 3.367 22.7923 3.43716C22.0535 3.47854 20.9996 3.72502 20.1772 4.67135Z" fill="#101010"/>
<path d="M23.2321 33.2913C20.0348 33.2913 17.4321 30.6628 17.4321 27.4298C17.4321 24.1986 20.033 21.5684 23.2321 21.5684C26.4294 21.5684 29.0321 24.1968 29.0321 27.4298C29.0321 30.661 26.4312 33.2913 23.2321 33.2913ZM23.2321 22.61C20.6027 22.61 18.4629 24.7726 18.4629 27.4298C18.4629 30.0871 20.6027 32.2496 23.2321 32.2496C25.8615 32.2496 28.0013 30.0871 28.0013 27.4298C28.0013 24.7708 25.8615 22.61 23.2321 22.61Z" fill="#101010"/>
<path d="M52.4048 10.6635C52.622 11.1042 52.7324 11.6026 52.7324 12.1603C52.7324 12.6245 52.6238 13.0832 52.4048 13.5348C52.1858 13.9864 51.917 14.411 51.5948 14.805L45.8091 21.8341H52.5579C52.695 22.0895 52.8267 22.4152 52.9531 22.8092C53.0795 23.2032 53.1418 23.6332 53.1418 24.0973C53.1418 24.9105 52.9638 25.4952 52.6078 25.8551C52.2517 26.2149 51.7746 26.3948 51.1782 26.3948H39.7794C39.4127 26.071 39.119 25.6877 38.9018 25.247C38.6828 24.8062 38.5742 24.3078 38.5742 23.7501C38.5742 23.2859 38.6828 22.8272 38.9018 22.3756C39.119 21.924 39.3896 21.4994 39.7118 21.1054L45.6346 14.0763H39.2988C39.1617 13.8209 39.0282 13.497 38.9036 13.1012C38.7772 12.7072 38.7149 12.2772 38.7149 11.8131C38.7149 11.0017 38.8929 10.4152 39.2489 10.0554C39.605 9.69554 40.0803 9.51562 40.6784 9.51562H51.5254C51.8939 9.84126 52.1858 10.2227 52.4048 10.6635Z" fill="#101010"/>
<path d="M62.6482 8.95801C63.8873 8.95801 65.0177 9.08574 66.0396 9.34121C67.0614 9.59668 67.9337 9.98529 68.6565 10.507C69.3793 11.0288 69.9365 11.6908 70.3263 12.4914C70.7162 13.292 70.912 14.2384 70.912 15.3268V23.1223C70.912 23.725 70.7447 24.218 70.4136 24.6012C70.0807 24.9844 69.6837 25.3154 69.2262 25.5925C67.7343 26.4974 65.6337 26.949 62.9242 26.949C61.7065 26.949 60.6116 26.8321 59.6361 26.6018C58.6605 26.3697 57.822 26.0225 57.1224 25.5583C56.421 25.0941 55.8834 24.5022 55.5042 23.7826C55.125 23.063 54.9363 22.2282 54.9363 21.2765C54.9363 19.6753 55.4063 18.4465 56.348 17.5883C57.2897 16.7301 58.746 16.1958 60.722 15.9871L65.2331 15.4995V15.2567C65.2331 14.5838 64.9412 14.1034 64.3555 13.812C63.7698 13.5223 62.9259 13.3766 61.824 13.3766C60.9748 13.3766 60.131 13.4702 59.2925 13.6555C58.454 13.8408 57.7028 14.0729 57.0369 14.3517C56.7379 14.143 56.4851 13.8246 56.2786 13.3946C56.0721 12.9664 55.9688 12.5184 55.9688 12.0543C55.9688 11.4516 56.1112 10.9694 56.3996 10.6096C56.6862 10.2498 57.1277 9.94211 57.7259 9.68664C58.3917 9.43117 59.1768 9.24586 60.0847 9.12892C60.9908 9.01737 61.8453 8.95801 62.6482 8.95801ZM62.9242 22.6348C63.314 22.6348 63.7448 22.5952 64.2148 22.5124C64.6848 22.4315 65.0355 22.3217 65.2652 22.1814V19.3982L62.7853 19.6069C62.1426 19.6537 61.6139 19.7922 61.2009 20.0243C60.7879 20.2564 60.5814 20.6036 60.5814 21.0677C60.5814 21.5319 60.7594 21.9097 61.1154 22.1994C61.4715 22.4908 62.075 22.6348 62.9242 22.6348Z" fill="#101010"/>
<path d="M79.3325 26.5676C78.8626 26.6378 78.3516 26.672 77.7998 26.672C76.6515 26.672 75.8255 26.4813 75.3199 26.098C74.8143 25.7148 74.5615 24.979 74.5615 23.8887V3.70464C74.8143 3.63448 75.1757 3.56611 75.6457 3.49595C76.1157 3.42578 76.6266 3.3916 77.1785 3.3916C78.3267 3.3916 79.1527 3.58231 79.6583 3.96552C80.1621 4.34872 80.4149 5.08456 80.4149 6.17481V15.3628L86.3377 9.23868C87.5305 9.23868 88.49 9.50494 89.2128 10.0393C89.9356 10.5736 90.297 11.2465 90.297 12.0579C90.297 12.4051 90.24 12.7253 90.1243 13.015C90.0086 13.3046 89.8323 13.6015 89.5902 13.9019C89.3499 14.2042 89.0401 14.5226 88.6609 14.8591C88.2817 15.1955 87.8402 15.5841 87.3347 16.0249L85.3034 17.8006L90.847 23.3346C90.7313 24.4249 90.4162 25.2615 89.9 25.8408C89.3837 26.4201 88.6307 26.7115 87.6444 26.7115C86.9092 26.7115 86.2558 26.5316 85.6808 26.1718C85.1058 25.812 84.4863 25.2039 83.8205 24.3439L80.4113 20.0639V26.3625C80.1639 26.4291 79.8025 26.4974 79.3325 26.5676Z" fill="#101010"/>
<path d="M93.4675 4.78263C93.4675 3.90107 93.7595 3.15984 94.3452 2.55534C94.9309 1.95264 95.7053 1.65039 96.6702 1.65039C97.635 1.65039 98.4094 1.95264 98.9951 2.55534C99.5808 3.15804 99.8728 3.90107 99.8728 4.78263C99.8728 5.66418 99.5808 6.40721 98.9951 7.00991C98.4094 7.61261 97.635 7.91486 96.6702 7.91486C95.7053 7.91486 94.9309 7.61441 94.3452 7.00991C93.7595 6.40721 93.4675 5.66418 93.4675 4.78263ZM93.7435 9.72475C93.9963 9.65459 94.3576 9.58622 94.8276 9.51606C95.2976 9.44589 95.8085 9.41171 96.3604 9.41171C97.5086 9.41171 98.3347 9.60242 98.8403 9.98563C99.3441 10.3688 99.5986 11.1047 99.5986 12.1949V26.3592C99.3458 26.4294 98.9844 26.4978 98.5145 26.5679C98.0445 26.6381 97.5336 26.6723 96.9817 26.6723C95.8334 26.6723 95.0074 26.4816 94.5018 26.0984C93.9963 25.7152 93.7435 24.9793 93.7435 23.8891V9.72475Z" fill="#101010"/>
</svg>
