<svg width="100" height="34" viewBox="0 0 100 34" fill="none" xmlns="http://www.w3.org/2000/svg">
<path d="M8.54856 13.2865C7.04605 13.103 5.2943 12.8134 3.70456 12.0613C2.16288 11.3327 1.01464 9.85743 0.63189 8.11411C0.272284 6.47692 0.647911 4.83435 1.66264 3.60736C3.84164 0.973478 6.96416 1.70571 9.71995 2.34979C10.2896 2.48293 10.8362 2.61066 11.3595 2.70781C13.8465 2.96688 16.3602 2.99027 18.8276 2.5297C20.4939 2.21846 21.9519 1.67872 23.6716 1.75609L23.7606 2.77258C22.4895 2.71501 21.2558 3.01546 19.9509 3.3339C19.6056 3.41846 19.2548 3.50302 18.9024 3.58218C17.0438 3.88263 15.1906 3.99776 13.3053 3.89162C12.0182 3.81785 10.7418 3.65954 9.48852 3.36628C6.90185 2.75999 4.22795 2.1339 2.45484 4.27663C1.64662 5.25354 1.34932 6.57048 1.6395 7.89102C1.95282 9.3213 2.88922 10.5285 4.1425 11.1204C5.60051 11.8095 7.25077 12.0811 8.67318 12.2556L8.54856 13.2865Z" fill="#F8F9FA"/>
<path d="M6.07777 32.5453C4.6251 32.5453 3.15463 31.975 2.09184 30.9909C1.13942 30.1075 0.498535 28.5549 0.498535 27.1282C0.498535 25.7807 1.02192 24.4943 2.05267 23.3069L19.4028 3.3189C20.2288 2.36897 21.4126 1.80405 22.7371 1.73209C24.2859 1.64573 25.8881 2.22504 27.0221 3.27932C27.9746 4.16267 28.6154 5.7153 28.6154 7.14198C28.6154 8.48951 28.0921 9.77587 27.0613 10.9633L9.71121 30.9513C8.88519 31.9012 7.70133 32.4661 6.37685 32.5381C6.27893 32.5417 6.17924 32.5453 6.07777 32.5453ZM20.1772 4.00435L2.82707 23.9924C1.95476 24.9981 1.52929 26.0236 1.52929 27.1282C1.52929 28.2634 2.04733 29.5354 2.78791 30.2226C3.72253 31.0898 5.04346 31.563 6.32166 31.4964C7.06045 31.455 8.11435 31.2086 8.93681 30.2622L26.2869 10.2742C27.161 9.26853 27.5847 8.24304 27.5847 7.13839C27.5847 6.00316 27.0666 4.73119 26.3261 4.04393C25.3914 3.17677 24.0687 2.70001 22.7923 2.77017C22.0535 2.81155 20.9996 3.05803 20.1772 4.00435Z" fill="#F8F9FA"/>
<path d="M23.2321 32.6243C20.0348 32.6243 17.4321 29.9958 17.4321 26.7628C17.4321 23.5317 20.033 20.9014 23.2321 20.9014C26.4294 20.9014 29.0321 23.5299 29.0321 26.7628C29.0321 29.994 26.4312 32.6243 23.2321 32.6243ZM23.2321 21.9431C20.6027 21.9431 18.4629 24.1056 18.4629 26.7628C18.4629 29.4201 20.6027 31.5826 23.2321 31.5826C25.8615 31.5826 28.0013 29.4201 28.0013 26.7628C28.0013 24.1038 25.8615 21.9431 23.2321 21.9431Z" fill="#F8F9FA"/>
<path d="M52.4048 9.99646C52.622 10.4372 52.7324 10.9356 52.7324 11.4933C52.7324 11.9575 52.6238 12.4162 52.4048 12.8678C52.1858 13.3194 51.917 13.744 51.5948 14.138L45.8091 21.1671H52.5579C52.695 21.4225 52.8267 21.7482 52.9531 22.1422C53.0795 22.5362 53.1418 22.9662 53.1418 23.4303C53.1418 24.2435 52.9638 24.8283 52.6078 25.1881C52.2517 25.5479 51.7746 25.7278 51.1782 25.7278H39.7794C39.4127 25.404 39.119 25.0208 38.9018 24.58C38.6828 24.1392 38.5742 23.6408 38.5742 23.0831C38.5742 22.619 38.6828 22.1602 38.9018 21.7086C39.119 21.257 39.3896 20.8324 39.7118 20.4384L45.6346 13.4094H39.2988C39.1617 13.1539 39.0282 12.83 38.9036 12.4342C38.7772 12.0402 38.7149 11.6103 38.7149 11.1461C38.7149 10.3347 38.8929 9.74818 39.2489 9.38836C39.605 9.02854 40.0803 8.84863 40.6784 8.84863H51.5254C51.8939 9.17427 52.1858 9.55568 52.4048 9.99646Z" fill="#F8F9FA"/>
<path d="M62.6482 8.29102C63.8873 8.29102 65.0177 8.41875 66.0396 8.67422C67.0614 8.92969 67.9337 9.3183 68.6565 9.84004C69.3793 10.3618 69.9365 11.0238 70.3263 11.8244C70.7162 12.625 70.912 13.5714 70.912 14.6598V22.4553C70.912 23.058 70.7447 23.551 70.4136 23.9342C70.0807 24.3174 69.6837 24.6484 69.2262 24.9255C67.7343 25.8304 65.6337 26.282 62.9242 26.282C61.7065 26.282 60.6116 26.1651 59.6361 25.9348C58.6605 25.7027 57.822 25.3555 57.1224 24.8913C56.421 24.4271 55.8834 23.8352 55.5042 23.1156C55.125 22.396 54.9363 21.5612 54.9363 20.6095C54.9363 19.0083 55.4063 17.7795 56.348 16.9213C57.2897 16.0631 58.746 15.5288 60.722 15.3201L65.2331 14.8325V14.5897C65.2331 13.9168 64.9412 13.4364 64.3555 13.145C63.7698 12.8553 62.9259 12.7096 61.824 12.7096C60.9748 12.7096 60.131 12.8032 59.2925 12.9885C58.454 13.1738 57.7028 13.4059 57.0369 13.6847C56.7379 13.476 56.4851 13.1576 56.2786 12.7276C56.0721 12.2994 55.9688 11.8514 55.9688 11.3873C55.9688 10.7846 56.1112 10.3024 56.3996 9.94259C56.6862 9.58277 57.1277 9.27512 57.7259 9.01965C58.3917 8.76418 59.1768 8.57887 60.0847 8.46193C60.9908 8.35038 61.8453 8.29102 62.6482 8.29102ZM62.9242 21.9678C63.314 21.9678 63.7448 21.9282 64.2148 21.8454C64.6848 21.7645 65.0355 21.6547 65.2652 21.5144V18.7312L62.7853 18.9399C62.1426 18.9867 61.6139 19.1252 61.2009 19.3573C60.7879 19.5894 60.5814 19.9366 60.5814 20.4008C60.5814 20.8649 60.7594 21.2427 61.1154 21.5324C61.4715 21.8239 62.075 21.9678 62.9242 21.9678Z" fill="#F8F9FA"/>
<path d="M79.3325 25.9006C78.8626 25.9708 78.3516 26.005 77.7998 26.005C76.6515 26.005 75.8255 25.8143 75.3199 25.4311C74.8143 25.0478 74.5615 24.312 74.5615 23.2218V3.03765C74.8143 2.96749 75.1757 2.89912 75.6457 2.82895C76.1157 2.75879 76.6266 2.72461 77.1785 2.72461C78.3267 2.72461 79.1527 2.91531 79.6583 3.29852C80.1621 3.68173 80.4149 4.41756 80.4149 5.50782V14.6958L86.3377 8.57169C87.5305 8.57169 88.49 8.83795 89.2128 9.37228C89.9356 9.90662 90.297 10.5795 90.297 11.3909C90.297 11.7381 90.24 12.0583 90.1243 12.348C90.0086 12.6377 89.8323 12.9345 89.5902 13.235C89.3499 13.5372 89.0401 13.8556 88.6609 14.1921C88.2817 14.5285 87.8402 14.9171 87.3347 15.3579L85.3034 17.1336L90.847 22.6676C90.7313 23.7579 90.4162 24.5945 89.9 25.1738C89.3837 25.7531 88.6307 26.0445 87.6444 26.0445C86.9092 26.0445 86.2558 25.8646 85.6808 25.5048C85.1058 25.145 84.4863 24.5369 83.8205 23.6769L80.4113 19.3969V25.6955C80.1639 25.7621 79.8025 25.8305 79.3325 25.9006Z" fill="#F8F9FA"/>
<path d="M93.4675 4.11563C93.4675 3.23407 93.7595 2.49285 94.3452 1.88835C94.9309 1.28565 95.7053 0.983398 96.6702 0.983398C97.635 0.983398 98.4094 1.28565 98.9951 1.88835C99.5808 2.49105 99.8728 3.23407 99.8728 4.11563C99.8728 4.99719 99.5808 5.74022 98.9951 6.34292C98.4094 6.94562 97.635 7.24787 96.6702 7.24787C95.7053 7.24787 94.9309 6.94742 94.3452 6.34292C93.7595 5.74022 93.4675 4.99719 93.4675 4.11563ZM93.7435 9.05776C93.9963 8.9876 94.3576 8.91923 94.8276 8.84907C95.2976 8.7789 95.8085 8.74472 96.3604 8.74472C97.5086 8.74472 98.3347 8.93543 98.8403 9.31863C99.3441 9.70184 99.5986 10.4377 99.5986 11.5279V25.6922C99.3458 25.7624 98.9844 25.8308 98.5145 25.9009C98.0445 25.9711 97.5336 26.0053 96.9817 26.0053C95.8334 26.0053 95.0074 25.8146 94.5018 25.4314C93.9963 25.0482 93.7435 24.3123 93.7435 23.2221V9.05776Z" fill="#F8F9FA"/>
</svg>
