<svg width="102" height="23" viewBox="0 0 102 23" fill="none" xmlns="http://www.w3.org/2000/svg">
<path d="M38.8138 21.9622H34.5378V0H41.2138L45.2066 17.2699L49.1702 0H55.7713V21.9622H51.4954V7.10703C51.4954 6.67963 51.5008 6.08235 51.51 5.31156C51.5191 4.54259 51.5246 3.94896 51.5246 3.53069L47.3674 21.9622H42.9125L38.7845 3.53069C38.7845 3.94714 38.79 4.54076 38.7991 5.31156C38.8083 6.08235 38.8138 6.67963 38.8138 7.10703V21.9622Z" fill="#F8F9FA"/>
<path d="M67.6327 19.6681C67.5926 19.7174 67.4939 19.8672 67.335 20.1156C67.1761 20.364 66.988 20.5832 66.7688 20.7713C66.1039 21.3668 65.4592 21.7741 64.84 21.9933C64.2189 22.2125 63.492 22.3202 62.6573 22.3202C60.2535 22.3202 58.6352 21.4563 57.8005 19.7284C57.3329 18.7749 57.101 17.3685 57.101 15.5109V5.72253H61.4518V15.5109C61.4518 16.4351 61.5613 17.1292 61.7787 17.5968C62.1659 18.4206 62.9258 18.8334 64.0582 18.8334C65.5085 18.8334 66.5021 18.2471 67.0391 17.0744C67.3167 16.4388 67.4556 15.5986 67.4556 14.5556V5.7207H71.7607V21.9622H67.6327V19.6681Z" fill="#F8F9FA"/>
<path d="M71.7917 5.72266H76.559L79.9417 17.7029L83.3994 5.72266H87.9584L82.1025 21.9642H77.6184L71.7917 5.72266Z" fill="#F8F9FA"/>
<path d="M101.787 17.1944C101.678 18.1588 101.177 19.136 100.282 20.1296C98.8921 21.7096 96.945 22.4986 94.4408 22.4986C92.375 22.4986 90.5521 21.8338 88.9722 20.5022C87.3922 19.1707 86.6031 17.0063 86.6031 14.0053C86.6031 11.1942 87.3155 9.03893 88.742 7.53934C90.1667 6.03976 92.017 5.28906 94.2928 5.28906C95.6426 5.28906 96.8609 5.54295 97.9441 6.0489C99.0272 6.55485 99.9204 7.35487 100.625 8.44714C101.261 9.41154 101.674 10.5276 101.862 11.7988C101.972 12.544 102.015 13.6162 101.995 15.0172H90.8791C90.9393 16.6464 91.4508 17.788 92.4133 18.4437C92.9997 18.8511 93.7047 19.0538 94.5285 19.0538C95.4034 19.0538 96.1121 18.8054 96.66 18.3086C96.9578 18.0401 97.2208 17.6675 97.4491 17.1907H101.785L101.787 17.1944ZM97.5861 12.2171C97.5167 11.0956 97.1769 10.2426 96.565 9.66177C95.955 9.08094 95.197 8.79052 94.2928 8.79052C93.3102 8.79052 92.5467 9.09921 92.006 9.71475C91.4654 10.3303 91.1238 11.165 90.985 12.2171H97.5861Z" fill="#F8F9FA"/>
<path d="M0 11.1967C0 7.8359 0 4.47327 0 1.11245C0 0.376359 0.18448 0.19005 0.907786 0.19005C4.71793 0.19005 8.5299 0.193703 12.34 0.18457C12.7565 0.18457 13.0323 0.341655 13.2369 0.696002C15.0908 3.91435 16.9502 7.12904 18.8041 10.3474C19.1311 10.9136 19.1293 11.4871 18.8041 12.0534C16.9411 15.2827 15.0762 18.5102 13.2149 21.7376C13.0268 22.0628 12.7601 22.2125 12.3802 22.2107C8.51529 22.2052 4.65034 22.2107 0.783578 22.2052C0.202741 22.2052 0 21.9824 0 21.3632C0 17.975 0 14.5849 0 11.1967Z" fill="#F3B630"/>
<path d="M20.3913 11.1989C20.3913 7.77053 20.3913 4.3403 20.3913 0.911906C20.3913 0.27262 20.4772 0.190427 21.1256 0.188601C21.5603 0.188601 21.9969 0.205034 22.4316 0.183116C22.7914 0.164851 23.0051 0.316453 23.1805 0.623311C24.7695 3.39598 26.3714 6.16318 27.9696 8.9322C28.2345 9.39249 28.4938 9.8546 28.7678 10.3094C29.124 10.9049 29.1149 11.493 28.7715 12.0866C27.1696 14.8538 25.5696 17.621 23.9695 20.3882C23.6828 20.8832 23.4252 21.3965 23.1019 21.864C22.985 22.0321 22.7238 22.1727 22.5156 22.1928C22.0297 22.2403 21.5366 22.2093 21.0471 22.2056C20.4936 22.202 20.3932 22.1015 20.3932 21.5243C20.3895 19.2795 20.3895 17.0347 20.3895 14.7881C20.3895 13.5899 20.3895 12.3935 20.3895 11.1953L20.3913 11.1989Z" fill="#F3B630"/>
</svg>
