<svg width="154" height="24" viewBox="0 0 154 24" fill="none" xmlns="http://www.w3.org/2000/svg">
<path d="M18.7587 21.1538H14.8507L12.5547 10.3736L10.2626 21.1538H6.35455L2.27063 6.06152H6.07122L8.41605 16.5025L10.5518 6.06152H14.5107L16.5233 16.5025L18.5926 7.42417C18.8154 6.51574 19.4114 6.06152 20.3806 6.06152H22.8407L18.7587 21.1538Z" fill="#01130E"/>
<path d="M36.1612 16.5029H38.9574C38.5471 18.0897 37.7654 19.3003 36.6126 20.1347C35.4584 21.0034 34.0052 21.4378 32.2531 21.4378C30.1285 21.4378 28.4701 20.7383 27.2782 19.3393C26.0836 17.9786 25.4863 16.0282 25.4863 13.4881C25.4863 11.0656 26.0634 9.17402 27.2176 7.81336C28.4122 6.41303 30.0705 5.71352 32.1926 5.71485C34.4293 5.71485 36.1625 6.39518 37.3922 7.75584C38.5842 9.15617 39.1802 11.1046 39.1802 13.6011V14.2259C39.1886 14.3607 39.1693 14.4958 39.1235 14.6226H29.455C29.4888 15.8008 29.7663 16.6735 30.2874 17.2408C30.772 17.8464 31.4982 18.1486 32.4661 18.1472C33.032 18.1651 33.5922 18.0281 34.088 17.7505C34.2044 17.7104 34.3097 17.6424 34.3947 17.5522L34.7035 17.2408C34.8017 17.0551 34.9458 16.8986 35.1216 16.7866C35.4274 16.5772 35.7932 16.4774 36.1612 16.5029ZM29.455 12.0758H35.1549C35.0806 11.0563 34.8201 10.3 34.3733 9.80674C33.8887 9.27782 33.1995 9.01336 32.3059 9.01336C31.9348 8.99927 31.5649 9.06238 31.2188 9.19883C30.8726 9.33527 30.5577 9.54215 30.2932 9.80674C29.7683 10.337 29.4888 11.0934 29.455 12.0758Z" fill="#01130E"/>
<path d="M51.6058 1.58601H53.507C53.7595 1.58374 54.0095 1.63556 54.2408 1.7381C54.4721 1.84064 54.6795 1.99158 54.8495 2.18105C55.0243 2.35508 55.1636 2.56236 55.2595 2.79106C55.3554 3.01977 55.406 3.2654 55.4083 3.51394V14.5718C55.4083 17.2574 54.6443 19.0729 53.1162 20.0184C51.6215 20.9546 49.8977 21.446 48.1413 21.4366C47.1713 21.4364 46.208 21.2735 45.2904 20.9546C44.4102 20.6698 43.6326 20.1274 43.055 19.3956C41.9685 17.9953 41.4253 16.0845 41.4253 13.6634C41.4253 11.2832 41.9659 9.37312 43.0471 7.93312C44.1648 6.46006 45.5978 5.72287 47.346 5.72155C48.2067 5.69908 49.0595 5.89401 49.8276 6.28882C50.5524 6.72241 51.1653 7.32477 51.6155 8.04617L51.6058 1.58601ZM45.2337 13.4868C45.2337 14.9982 45.5131 16.152 46.072 16.948C46.6308 17.744 47.4326 18.1407 48.4774 18.1381C48.9353 18.1561 49.3903 18.0565 49.8002 17.8485C50.2101 17.6404 50.5617 17.3307 50.8222 16.948C51.3433 16.1546 51.6038 15.0009 51.6038 13.4868C51.6038 12.1235 51.3244 11.0452 50.7655 10.2518C50.4811 9.88496 50.1153 9.59153 49.698 9.39541C49.2807 9.19928 48.8236 9.10601 48.364 9.1232C47.9141 9.10911 47.468 9.21085 47.0672 9.41894C46.6664 9.62703 46.324 9.9347 46.072 10.3133C45.5131 11.0723 45.2337 12.1301 45.2337 13.4868Z" fill="#01130E"/>
<path d="M59.8988 19.7926C59.0881 19.0622 58.5076 18.1052 58.23 17.0415C57.8917 15.8711 57.7219 14.6573 57.7259 13.4376C57.7282 12.4014 57.8696 11.3705 58.146 10.3731C58.3843 9.43092 58.8336 8.55731 59.4591 7.82037C60.4122 6.69388 61.7495 5.97474 63.203 5.80715C64.5908 5.58608 66.0108 5.71204 67.3397 6.17409C68.7174 6.70997 69.8367 7.76721 70.4623 9.12351C71.0954 10.3705 71.4119 11.825 71.4119 13.4871C71.4329 14.541 71.3012 15.5922 71.0211 16.6071C70.7994 17.393 70.46 18.1396 70.0148 18.8207C69.2111 20.0078 67.9916 20.8392 66.605 21.1453C65.3935 21.4851 64.1178 21.5145 62.8923 21.2306C61.6418 20.9529 60.6439 20.4736 59.8988 19.7926ZM62.5817 9.80582C61.8 10.6772 61.4457 11.9731 61.5187 13.6934C61.5916 15.4138 61.9088 16.6144 62.4703 17.2954C62.693 17.5995 63.0838 17.8547 63.6427 18.061C64.1898 18.2692 64.7891 18.2894 65.3486 18.1186C65.925 17.948 66.4389 17.5235 66.8844 16.8412C67.3299 16.1589 67.5742 15.0561 67.6113 13.5506C67.6113 12.19 67.397 11.1691 66.9684 10.4881C66.5399 9.80715 66.0462 9.3721 65.4873 9.18301C64.9457 8.9929 64.3586 8.98248 63.8107 9.15326C63.3553 9.26725 62.9337 9.4911 62.5817 9.80582Z" fill="#01130E"/>
<path d="M83.6793 3.50807V8.04625C84.1091 7.30825 84.7267 6.70125 85.4672 6.28889C86.2271 5.88856 87.0756 5.69322 87.9312 5.72162C89.682 5.72162 91.115 6.45881 92.2301 7.93319C93.3452 9.40757 93.9047 11.3176 93.9086 13.6634C93.9086 16.0092 93.3491 17.92 92.2301 19.3957C91.6452 20.132 90.8574 20.6747 89.9673 20.9547C89.0598 21.2685 88.1083 21.4313 87.1496 21.4367C85.3932 21.4461 83.6694 20.9547 82.1746 20.0185C80.6466 19.0743 79.8826 17.2588 79.8826 14.5719V1.58608H81.7838C82.0339 1.58291 82.2819 1.63159 82.5127 1.72914C82.7435 1.82668 82.9523 1.97103 83.1263 2.15336C83.3039 2.3295 83.4444 2.54037 83.5395 2.77321C83.6345 3.00605 83.6821 3.25604 83.6793 3.50807ZM90.0514 13.4869C90.0514 12.1236 89.7719 11.0657 89.2131 10.3134C88.9611 9.93463 88.6188 9.62687 88.218 9.41876C87.8172 9.21066 87.371 9.109 86.921 9.12327C85.8788 9.12327 85.0777 9.50145 84.5175 10.2578C83.9587 11.0512 83.6793 12.1295 83.6793 13.4929C83.6793 15.0796 83.9398 16.2334 84.4609 16.954C84.7214 17.3367 85.0729 17.6464 85.4828 17.8545C85.8927 18.0625 86.3478 18.1621 86.8057 18.1441C87.8479 18.1441 88.649 17.7474 89.2092 16.954C89.7693 16.1606 90.05 15.0049 90.0514 13.4869Z" fill="#01130E"/>
<path d="M96.5544 21.1528V13.8338C96.5544 12.3607 96.7687 11.1224 97.1973 10.1187C97.5776 9.17927 98.1819 8.35046 98.9559 7.70683C99.6932 7.124 100.539 6.69952 101.443 6.45923C102.398 6.19359 103.384 6.06015 104.374 6.06253H104.931V10.089H103.648C102.565 10.089 101.763 10.3534 101.242 10.8824C100.721 11.4113 100.461 12.243 100.461 13.3776V21.1508L96.5544 21.1528Z" fill="#01130E"/>
<path d="M116.806 20.5313C116.03 20.9452 115.183 21.2051 114.311 21.2969C113.541 21.3852 112.766 21.4322 111.991 21.4377C110.732 21.4636 109.499 21.0761 108.474 20.3329C107.467 19.5951 106.964 18.3753 106.964 16.6734C106.964 15.0867 107.42 13.9515 108.331 13.2678C109.243 12.5842 110.41 12.1286 111.831 11.9012C112.057 11.8957 112.281 11.8671 112.501 11.8159C112.797 11.7528 113.096 11.7052 113.396 11.6731C115.035 11.447 115.855 10.9557 115.856 10.1994C115.856 9.63013 115.567 9.26319 114.989 9.09261C114.473 8.93152 113.936 8.84537 113.396 8.83674C112.921 8.82907 112.448 8.90559 111.999 9.06286C111.8 9.13482 111.617 9.24794 111.463 9.39508C111.309 9.54222 111.187 9.72018 111.104 9.91773H107.358C107.488 8.78367 108.049 7.74588 108.922 7.02583C109.929 6.15442 111.361 5.71938 113.22 5.72071C115.305 5.72071 116.868 6.07971 117.91 6.79773C118.426 7.14079 118.847 7.613 119.131 8.16885C119.415 8.7247 119.553 9.34546 119.532 9.97129V15.1283C119.532 16.641 119.262 17.8232 118.721 18.6748C118.26 19.4578 117.598 20.0993 116.806 20.5313ZM115.911 13.5515C115.211 13.8758 114.478 14.1206 113.725 14.2814L112.439 14.565C111.767 14.7634 111.282 14.9994 110.985 15.3029C110.739 15.6716 110.603 16.105 110.594 16.5505C110.582 16.8003 110.621 17.05 110.707 17.2843C110.793 17.5186 110.926 17.7325 111.096 17.9131C111.432 18.2146 111.917 18.3673 112.55 18.3673C113.592 18.3673 114.412 18.0645 115.008 17.4589C115.605 16.8533 115.903 16.0209 115.903 14.9617L115.911 13.5515Z" fill="#01130E"/>
<path d="M135.047 21.1533H133.093C132.84 21.1655 132.588 21.1239 132.352 21.0314C132.116 20.9388 131.901 20.7972 131.722 20.6158C131.543 20.4343 131.404 20.2169 131.312 19.9775C131.221 19.738 131.18 19.4819 131.191 19.2254V11.5037C131.191 10.5979 130.921 9.93677 130.381 9.52025C129.861 9.11206 129.222 8.89273 128.565 8.89744C127.915 8.88863 127.282 9.1087 126.773 9.52025C126.252 9.93677 125.992 10.5979 125.992 11.5037V21.1493H122.084V12.2971C122.084 9.7252 122.745 8.0062 124.069 7.14008C125.378 6.27398 126.894 5.78391 128.456 5.7219C130.057 5.71025 131.627 6.16306 132.983 7.02702C134.359 7.89578 135.047 9.65248 135.047 12.2971V21.1533Z" fill="#01130E"/>
<path d="M147.474 1.58602H149.376C149.628 1.58365 149.878 1.63544 150.109 1.73799C150.34 1.84054 150.547 1.99154 150.716 2.18106C150.891 2.35482 151.031 2.56205 151.127 2.79081C151.223 3.01957 151.273 3.26534 151.275 3.51395V14.5718C151.275 17.2574 150.511 19.0729 148.983 20.0184C147.489 20.9539 145.767 21.4453 144.012 21.4366C143.042 21.4362 142.079 21.2734 141.161 20.9546C140.283 20.668 139.508 20.1258 138.931 19.3956C137.85 17.9953 137.31 16.0845 137.312 13.6634C137.312 11.2832 137.851 9.37312 138.931 7.93312C140.049 6.46006 141.482 5.72287 143.23 5.72155C144.084 5.70294 144.929 5.89776 145.69 6.28882C146.415 6.72296 147.028 7.3252 147.478 8.04618L147.474 1.58602ZM141.102 13.4868C141.102 14.9982 141.382 16.152 141.941 16.948C142.499 17.744 143.301 18.1407 144.344 18.1381C144.802 18.1563 145.257 18.0568 145.667 17.8487C146.077 17.6406 146.428 17.3308 146.689 16.948C147.21 16.1546 147.471 15.0009 147.471 13.4868C147.471 12.1235 147.191 11.0452 146.632 10.2518C146.348 9.88524 145.983 9.59198 145.566 9.39587C145.149 9.19976 144.692 9.10633 144.233 9.1232C143.783 9.10893 143.337 9.21059 142.936 9.41869C142.535 9.6268 142.193 9.93457 141.941 10.3133C141.382 11.0723 141.102 12.1301 141.102 13.4868Z" fill="#01130E"/>
</svg>
