<svg width="102" height="23" viewBox="0 0 102 23" fill="none" xmlns="http://www.w3.org/2000/svg">
<path d="M38.8138 22.4632H34.5378V0.500977H41.2138L45.2066 17.7708L49.1702 0.500977H55.7713V22.4632H51.4954V7.60801C51.4954 7.1806 51.5008 6.58333 51.51 5.81253C51.5191 5.04356 51.5246 4.44994 51.5246 4.03166L47.3674 22.4632H42.9125L38.7845 4.03166C38.7845 4.44811 38.79 5.04174 38.7991 5.81253C38.8083 6.58333 38.8138 7.1806 38.8138 7.60801V22.4632Z" fill="#110F0A"/>
<path d="M67.6327 20.1691C67.5926 20.2184 67.4939 20.3682 67.335 20.6166C67.1761 20.865 66.988 21.0842 66.7688 21.2723C66.1039 21.8677 65.4592 22.2751 64.84 22.4942C64.2189 22.7134 63.492 22.8212 62.6573 22.8212C60.2535 22.8212 58.6352 21.9573 57.8005 20.2294C57.3329 19.2759 57.101 17.8695 57.101 16.0119V6.22351H61.4518V16.0119C61.4518 16.9361 61.5613 17.6302 61.7787 18.0978C62.1659 18.9215 62.9258 19.3343 64.0582 19.3343C65.5085 19.3343 66.5021 18.748 67.0391 17.5754C67.3167 16.9398 67.4556 16.0996 67.4556 15.0566V6.22168H71.7607V22.4632H67.6327V20.1691Z" fill="#110F0A"/>
<path d="M71.7917 6.22363H76.559L79.9417 18.2038L83.3994 6.22363H87.9584L82.1025 22.4652H77.6184L71.7917 6.22363Z" fill="#110F0A"/>
<path d="M101.787 17.6954C101.678 18.6598 101.177 19.637 100.282 20.6306C98.8921 22.2105 96.945 22.9996 94.4408 22.9996C92.375 22.9996 90.5521 22.3348 88.9722 21.0032C87.3922 19.6717 86.6031 17.5072 86.6031 14.5062C86.6031 11.6952 87.3155 9.5399 88.742 8.04032C90.1667 6.54074 92.017 5.79004 94.2928 5.79004C95.6426 5.79004 96.8609 6.04393 97.9441 6.54988C99.0272 7.05583 99.9204 7.85585 100.625 8.94811C101.261 9.91252 101.674 11.0285 101.862 12.2998C101.972 13.045 102.015 14.1172 101.995 15.5181H90.8791C90.9393 17.1474 91.4508 18.289 92.4133 18.9447C92.9997 19.352 93.7047 19.5548 94.5285 19.5548C95.4034 19.5548 96.1121 19.3064 96.66 18.8096C96.9578 18.5411 97.2208 18.1684 97.4491 17.6917H101.785L101.787 17.6954ZM97.5861 12.7181C97.5167 11.5966 97.1769 10.7436 96.565 10.1627C95.955 9.58191 95.197 9.2915 94.2928 9.2915C93.3102 9.2915 92.5467 9.60018 92.006 10.2157C91.4654 10.8313 91.1238 11.666 90.985 12.7181H97.5861Z" fill="#110F0A"/>
<path d="M0 11.6977C0 8.33688 0 4.97424 0 1.61343C0 0.877336 0.18448 0.691026 0.907786 0.691026C4.71793 0.691026 8.5299 0.69468 12.34 0.685547C12.7565 0.685547 13.0323 0.842632 13.2369 1.19698C15.0908 4.41533 16.9502 7.63002 18.8041 10.8484C19.1311 11.4146 19.1293 11.9881 18.8041 12.5543C16.9411 15.7836 15.0762 19.0111 13.2149 22.2386C13.0268 22.5637 12.7601 22.7135 12.3802 22.7117C8.51529 22.7062 4.65034 22.7117 0.783578 22.7062C0.202741 22.7062 0 22.4834 0 21.8642C0 18.476 0 15.0859 0 11.6977Z" fill="#F3B630"/>
<path d="M20.3913 11.6999C20.3913 8.2715 20.3913 4.84128 20.3913 1.41288C20.3913 0.773596 20.4772 0.691404 21.1256 0.689577C21.5603 0.689577 21.9969 0.706011 22.4316 0.684092C22.7914 0.665827 23.0051 0.81743 23.1805 1.12429C24.7695 3.89696 26.3714 6.66416 27.9696 9.43318C28.2345 9.89347 28.4938 10.3556 28.7678 10.8104C29.124 11.4058 29.1149 11.994 28.7715 12.5876C27.1696 15.3548 25.5696 18.122 23.9695 20.8892C23.6828 21.3842 23.4252 21.8974 23.1019 22.365C22.985 22.5331 22.7238 22.6737 22.5156 22.6938C22.0297 22.7413 21.5366 22.7102 21.0471 22.7066C20.4936 22.7029 20.3932 22.6025 20.3932 22.0253C20.3895 19.7805 20.3895 17.5357 20.3895 15.289C20.3895 14.0908 20.3895 12.8945 20.3895 11.6963L20.3913 11.6999Z" fill="#F3B630"/>
</svg>
