<svg width="120" height="19" viewBox="0 0 120 19" fill="none" xmlns="http://www.w3.org/2000/svg">
<path d="M14.6752 16.549H11.6178L9.82166 8.11557L8.02854 16.549H4.97121L1.77631 4.74219H4.74955L6.58395 12.9103L8.25478 4.74219H11.3518L12.9264 12.9103L14.5452 5.8082C14.7195 5.09753 15.1857 4.74219 15.9439 4.74219H17.8685L14.6752 16.549Z" fill="#F6AE21"/>
<path d="M28.2894 12.9104H30.4769C30.1559 14.1517 29.5444 15.0988 28.6425 15.7515C27.7396 16.4312 26.6028 16.771 25.2321 16.771C23.5699 16.771 22.2726 16.2238 21.3401 15.1293C20.4056 14.0648 19.9383 12.539 19.9383 10.5518C19.9383 8.65666 20.3898 7.17686 21.2927 6.1124C22.2272 5.0169 23.5245 4.46967 25.1847 4.4707C26.9345 4.4707 28.2904 5.00294 29.2524 6.0674C30.1849 7.16289 30.6512 8.68718 30.6512 10.6402V11.129C30.6578 11.2345 30.6427 11.3402 30.6068 11.4394H23.043C23.0695 12.3611 23.2866 13.0438 23.6942 13.4876C24.0733 13.9614 24.6415 14.1978 25.3987 14.1967C25.8414 14.2107 26.2796 14.1035 26.6675 13.8864C26.7586 13.855 26.8409 13.8018 26.9075 13.7312L27.149 13.4876C27.2258 13.3423 27.3385 13.2199 27.4761 13.1323C27.7153 12.9685 28.0015 12.8904 28.2894 12.9104V12.9104ZM23.043 9.44699H27.5021C27.444 8.64942 27.2402 8.05771 26.8907 7.67185C26.5115 7.25807 25.9724 7.05117 25.2733 7.05117C24.9831 7.04015 24.6936 7.08953 24.4228 7.19627C24.1521 7.30301 23.9057 7.46485 23.6988 7.67185C23.2881 8.08667 23.0695 8.67838 23.043 9.44699Z" fill="#F6AE21"/>
<path d="M40.3719 1.24029H41.8593C42.0567 1.23851 42.2523 1.27906 42.4333 1.35927C42.6143 1.43949 42.7765 1.55757 42.9095 1.7058C43.0462 1.84194 43.1552 2.0041 43.2303 2.18302C43.3053 2.36194 43.3448 2.5541 43.3467 2.74854V11.3992C43.3467 13.5002 42.749 14.9206 41.5535 15.6602C40.3842 16.3926 39.0356 16.777 37.6616 16.7697C36.9027 16.7695 36.1492 16.6421 35.4313 16.3926C34.7427 16.1698 34.1343 15.7455 33.6825 15.173C32.8325 14.0775 32.4076 12.5827 32.4076 10.6886C32.4076 8.82653 32.8305 7.33225 33.6764 6.20572C34.5507 5.05332 35.6718 4.47661 37.0394 4.47558C37.7128 4.458 38.3799 4.61049 38.9808 4.91936C39.5478 5.25856 40.0273 5.7298 40.3795 6.29416L40.3719 1.24029ZM35.3869 10.5505C35.3869 11.7329 35.6055 12.6354 36.0427 13.2582C36.4799 13.8809 37.1072 14.1913 37.9245 14.1892C38.2828 14.2033 38.6387 14.1254 38.9594 13.9626C39.2801 13.7999 39.5551 13.5576 39.7589 13.2582C40.1665 12.6375 40.3704 11.7349 40.3704 10.5505C40.3704 9.48393 40.1518 8.64033 39.7146 8.01965C39.4921 7.73267 39.2059 7.50312 38.8794 7.34969C38.5529 7.19626 38.1954 7.12329 37.8358 7.13673C37.4838 7.12571 37.1348 7.20531 36.8213 7.3681C36.5078 7.53089 36.2399 7.77158 36.0427 8.06775C35.6055 8.66153 35.3869 9.4891 35.3869 10.5505Z" fill="#F6AE21"/>
<path d="M46.8596 15.4839C46.2254 14.9124 45.7713 14.1638 45.5541 13.3317C45.2895 12.4161 45.1566 11.4664 45.1598 10.5122C45.1616 9.70168 45.2721 8.89514 45.4884 8.11487C45.6748 7.37779 46.0264 6.69436 46.5157 6.11784C47.2613 5.23657 48.3075 4.67398 49.4446 4.54287C50.5303 4.36993 51.6411 4.46846 52.6808 4.82993C53.7585 5.24916 54.6342 6.07625 55.1236 7.1373C55.6189 8.1128 55.8665 9.25071 55.8665 10.551C55.8829 11.3754 55.7799 12.1978 55.5608 12.9918C55.3873 13.6066 55.1218 14.1907 54.7735 14.7235C54.1448 15.6523 53.1908 16.3026 52.106 16.5421C51.1582 16.808 50.1602 16.8309 49.2015 16.6089C48.2232 16.3916 47.4426 16.0166 46.8596 15.4839ZM48.9585 7.67108C48.347 8.3528 48.0698 9.36657 48.1269 10.7124C48.184 12.0582 48.4321 12.9975 48.8713 13.5303C49.0456 13.7682 49.3513 13.9679 49.7885 14.1292C50.2165 14.2921 50.6854 14.3079 51.1231 14.1742C51.574 14.0408 51.9761 13.7087 52.3246 13.1749C52.6731 12.6412 52.8642 11.7784 52.8933 10.6007C52.8933 9.53622 52.7256 8.73762 52.3903 8.20487C52.055 7.67212 51.6688 7.33178 51.2316 7.18385C50.8079 7.03513 50.3486 7.02697 49.92 7.16058C49.5637 7.24975 49.2339 7.42487 48.9585 7.67108V7.67108Z" fill="#F6AE21"/>
<path d="M65.4634 2.74394V6.29422C65.7997 5.71687 66.2828 5.24201 66.8621 4.91942C67.4566 4.60623 68.1204 4.45341 68.7898 4.47563C70.1594 4.47563 71.2805 5.05234 72.1528 6.20577C73.0252 7.3592 73.4629 8.85348 73.466 10.6886C73.466 12.5238 73.0282 14.0186 72.1528 15.173C71.6952 15.749 71.079 16.1737 70.3826 16.3926C69.6727 16.6382 68.9283 16.7655 68.1783 16.7697C66.8042 16.7771 65.4557 16.3927 64.2863 15.6602C63.0909 14.9216 62.4932 13.5013 62.4932 11.3993V1.24035H63.9806C64.1762 1.23787 64.3702 1.27595 64.5508 1.35226C64.7314 1.42857 64.8947 1.5415 65.0308 1.68413C65.1697 1.82193 65.2797 1.9869 65.354 2.16905C65.4284 2.35121 65.4656 2.54678 65.4634 2.74394V2.74394ZM70.4484 10.5505C70.4484 9.48398 70.2298 8.65641 69.7926 8.0678C69.5955 7.77153 69.3277 7.53076 69.0141 7.36796C68.7005 7.20515 68.3515 7.12562 67.9994 7.13679C67.1842 7.13679 66.5574 7.43264 66.1192 8.02436C65.682 8.64504 65.4634 9.48864 65.4634 10.5552C65.4634 11.7965 65.6672 12.6991 66.0749 13.2629C66.2787 13.5623 66.5537 13.8046 66.8744 13.9673C67.195 14.1301 67.551 14.208 67.9093 14.1939C68.7245 14.1939 69.3513 13.8836 69.7895 13.2629C70.2277 12.6422 70.4473 11.7381 70.4484 10.5505Z" fill="#F6AE21"/>
<path d="M75.5358 16.5485V10.8227C75.5358 9.67034 75.7034 8.70157 76.0387 7.91641C76.3362 7.18145 76.809 6.53307 77.4145 6.02954C77.9912 5.57359 78.6533 5.24151 79.3605 5.05353C80.1076 4.84572 80.8789 4.74132 81.6535 4.74319H82.0892V7.89313H81.0848C80.238 7.89313 79.6107 8.10002 79.2031 8.51381C78.7954 8.9276 78.5916 9.57827 78.5916 10.4658V16.5469L75.5358 16.5485Z" fill="#F6AE21"/>
<path d="M91.3789 16.0621C90.7717 16.3859 90.1091 16.5892 89.4268 16.6611C88.8243 16.7302 88.2186 16.7669 87.6123 16.7712C86.6273 16.7915 85.6623 16.4883 84.8607 15.9069C84.0729 15.3297 83.679 14.3754 83.679 13.0441C83.679 11.8027 84.0357 10.9146 84.7491 10.3798C85.4625 9.84497 86.3751 9.4886 87.4869 9.31067C87.6635 9.30638 87.8392 9.28403 88.0113 9.24395C88.2426 9.1946 88.4763 9.15731 88.7114 9.13223C89.9934 8.95533 90.635 8.57103 90.636 7.97932C90.636 7.53398 90.4097 7.24692 89.9573 7.11347C89.5534 6.98745 89.1339 6.92006 88.7114 6.9133C88.3397 6.9073 87.9698 6.96717 87.6184 7.0902C87.4625 7.14649 87.3198 7.23499 87.1993 7.3501C87.0788 7.46521 86.9831 7.60443 86.9183 7.75898H83.9878C84.0891 6.87179 84.528 6.05991 85.2108 5.4966C85.9985 4.81489 87.1196 4.47455 88.5738 4.47559C90.2044 4.47559 91.4273 4.75645 92.2426 5.31816C92.6464 5.58654 92.9752 5.95595 93.1974 6.3908C93.4196 6.82565 93.5278 7.31128 93.5114 7.80087V11.8353C93.5114 13.0187 93.2999 13.9435 92.877 14.6097C92.516 15.2223 91.9983 15.7242 91.3789 16.0621V16.0621ZM90.6788 10.6017C90.1311 10.8554 89.5574 11.0469 88.9682 11.1727L87.9624 11.3946C87.4365 11.5498 87.0574 11.7344 86.825 11.9718C86.6322 12.2603 86.526 12.5993 86.5193 12.9478C86.51 13.1433 86.54 13.3386 86.6076 13.5219C86.6751 13.7052 86.7788 13.8726 86.9122 14.0139C87.1751 14.2497 87.5542 14.3692 88.0495 14.3692C88.8648 14.3692 89.5058 14.1323 89.9726 13.6585C90.4393 13.1847 90.6727 12.5335 90.6727 11.7049L90.6788 10.6017Z" fill="#F6AE21"/>
<path d="M105.649 16.5489H104.12C103.923 16.5584 103.725 16.5259 103.54 16.4535C103.356 16.3811 103.188 16.2704 103.048 16.1284C102.908 15.9864 102.799 15.8163 102.727 15.629C102.656 15.4417 102.624 15.2413 102.633 15.0407V8.99993C102.633 8.29132 102.421 7.77409 101.998 7.44823C101.592 7.1289 101.092 6.95732 100.578 6.961C100.07 6.95411 99.5743 7.12628 99.1765 7.44823C98.7689 7.77409 98.5651 8.29132 98.5651 8.99993V16.5458H95.5078V9.6206C95.5078 7.60857 96.0255 6.26377 97.0609 5.5862C98.0851 4.90863 99.2711 4.52525 100.493 4.47673C101.745 4.46762 102.974 4.82186 104.035 5.49775C105.111 6.17739 105.649 7.55168 105.649 9.6206V16.5489Z" fill="#F6AE21"/>
<path d="M115.371 1.2403H116.859C117.056 1.23844 117.251 1.27896 117.432 1.35919C117.613 1.43942 117.775 1.55754 117.907 1.7058C118.044 1.84174 118.153 2.00386 118.228 2.18282C118.304 2.36179 118.343 2.55405 118.344 2.74854V11.3992C118.344 13.5002 117.747 14.9206 116.551 15.6602C115.383 16.3921 114.035 16.7765 112.662 16.7697C111.904 16.7694 111.15 16.642 110.432 16.3926C109.745 16.1684 109.139 15.7442 108.688 15.173C107.842 14.0775 107.42 12.5827 107.421 10.6886C107.421 8.82653 107.843 7.33225 108.688 6.20572C109.562 5.05333 110.683 4.47661 112.051 4.47558C112.719 4.46102 113.38 4.61343 113.976 4.91936C114.542 5.25899 115.022 5.73014 115.374 6.29416L115.371 1.2403ZM110.386 10.5505C110.386 11.7329 110.605 12.6354 111.042 13.2582C111.479 13.8809 112.106 14.1913 112.922 14.1892C113.281 14.2034 113.637 14.1256 113.957 13.9628C114.278 13.8 114.553 13.5577 114.757 13.2582C115.164 12.6375 115.368 11.7349 115.368 10.5505C115.368 9.48393 115.15 8.64033 114.712 8.01965C114.49 7.73289 114.204 7.50347 113.878 7.35005C113.552 7.19662 113.194 7.12354 112.835 7.13673C112.483 7.12557 112.134 7.2051 111.82 7.3679C111.507 7.5307 111.239 7.77148 111.042 8.06775C110.605 8.66153 110.386 9.4891 110.386 10.5505Z" fill="#F6AE21"/>
</svg>
