<svg width="24" height="24" viewBox="0 0 24 24" fill="none" xmlns="http://www.w3.org/2000/svg">
<path d="M21.6634 9.98791L21.6354 9.91629L18.9164 2.8219C18.8612 2.68276 18.7634 2.56463 18.6371 2.48437C18.5098 2.40402 18.3607 2.36517 18.2104 2.37317C18.0601 2.38117 17.9159 2.43562 17.7979 2.52902C17.6809 2.62279 17.5966 2.7511 17.5569 2.89564L15.7187 8.52146H8.28157L6.44336 2.89564C6.40366 2.7511 6.31934 2.62279 6.20241 2.52902C6.08487 2.435 5.94083 2.38013 5.79052 2.37212C5.64021 2.36411 5.49116 2.40336 5.36429 2.48437C5.2374 2.5643 5.13921 2.68251 5.08388 2.8219L2.36183 9.92559L2.33379 9.99622C1.94304 11.0194 1.895 12.1417 2.19691 13.1944C2.49882 14.2472 3.13436 15.1735 4.00794 15.834L4.01832 15.8412L4.04221 15.8599L8.18917 18.9642L10.2393 20.5169L11.4856 21.4609C11.6319 21.5715 11.8104 21.6314 11.9939 21.6314C12.1774 21.6314 12.3559 21.5715 12.5023 21.4609L13.7486 20.5169L15.7997 18.9642L19.9706 15.8412L19.9819 15.8329C20.8585 15.1731 21.4966 14.246 21.7999 13.1916C22.1033 12.1372 22.0553 11.0127 21.6634 9.98791Z" fill="black"/>
</svg>
