<svg width="25" height="25" viewBox="0 0 25 25" fill="none" xmlns="http://www.w3.org/2000/svg">
<path d="M7.92827 5.64934C7.9279 6.46365 7.43387 7.19643 6.67913 7.50214C5.92439 7.80786 5.05966 7.62546 4.49269 7.04096C3.92572 6.45645 3.76974 5.58656 4.09829 4.84148C4.42685 4.0964 5.17433 3.62491 5.98827 3.64934C7.06934 3.68179 7.92876 4.56778 7.92827 5.64934ZM7.98827 9.12934H3.98827V21.6493H7.98827V9.12934ZM14.3083 9.12934H10.3283V21.6493H14.2683V15.0793C14.2683 11.4193 19.0383 11.0793 19.0383 15.0793V21.6493H22.9883V13.7193C22.9883 7.54934 15.9283 7.77934 14.2683 10.8093L14.3083 9.12934Z" fill="#0A0A0A"/>
</svg>
