<svg width="25" height="25" viewBox="0 0 25 25" fill="none" xmlns="http://www.w3.org/2000/svg">
<path d="M12.9888 20.6484C17.4071 20.6484 20.9888 17.0667 20.9888 12.6484C20.9888 8.23016 17.4071 4.64844 12.9888 4.64844C8.57049 4.64844 4.98877 8.23016 4.98877 12.6484C4.98877 17.0667 8.57049 20.6484 12.9888 20.6484ZM12.9888 22.6484C7.46592 22.6484 2.98877 18.1712 2.98877 12.6484C2.98877 7.12559 7.46592 2.64844 12.9888 2.64844C18.5116 2.64844 22.9888 7.12559 22.9888 12.6484C22.9888 18.1712 18.5116 22.6484 12.9888 22.6484ZM9.87892 13.8192L7.38087 13.0395C6.84096 12.8739 6.83775 12.5024 7.50176 12.2355L17.2348 8.47598C17.7993 8.24488 18.1203 8.53686 17.9373 9.26485L16.2795 17.0861C16.1641 17.6425 15.8285 17.775 15.3637 17.5182L12.8128 15.6307L11.6239 16.7781C11.5017 16.896 11.4023 16.9973 11.2151 17.0227C11.0278 17.048 10.8734 16.9926 10.7612 16.6821L9.89157 13.8112L9.87892 13.8192Z" fill="#0A0A0A"/>
</svg>
