<svg width="1080" height="1080" viewBox="0 0 1080 1080" fill="none" xmlns="http://www.w3.org/2000/svg">
<rect width="1080" height="1080" fill="white"/>
<path d="M205.62 581.647C193.083 581.647 183.054 577.838 175.531 570.219C168.009 562.504 164.248 551.751 164.248 537.96V477.783H184.645V536.658C184.645 544.277 186.477 550.497 190.142 555.319C193.903 560.141 199.062 562.552 205.62 562.552C211.985 562.552 217.145 560.238 221.099 555.609C225.053 550.98 227.03 544.663 227.03 536.658V477.783H247.426V537.96C247.426 551.462 243.713 562.118 236.288 569.93C228.958 577.741 218.736 581.647 205.62 581.647ZM309.179 508.739C326.538 508.739 335.218 518.528 335.218 538.105V580.49H316.268V542.879C316.268 536.61 315.11 532.174 312.796 529.57C310.578 526.966 307.154 525.664 302.525 525.664C297.317 525.664 293.219 527.304 290.229 530.583C287.336 533.765 285.889 538.443 285.889 544.615V580.49H266.939V474.022H285.889V518.432H286.179C291.965 511.97 299.632 508.739 309.179 508.739ZM375.242 581.647C368.973 581.647 364.055 579.67 360.487 575.716C356.918 571.762 355.134 565.928 355.134 558.212V525.52H346.744V509.897H355.134V486.751L373.94 484.726V509.897H393.179V525.52H373.94V555.609C373.94 561.588 376.013 564.577 380.16 564.577C382.86 564.577 385.85 563.758 389.129 562.118L394.047 577.307C388.647 580.2 382.378 581.647 375.242 581.647ZM447.722 508.739C448.494 508.739 448.976 508.788 449.169 508.884V529.426C447.915 529.329 446.275 529.281 444.25 529.281C438.56 529.281 434.124 531.017 430.942 534.489C427.759 537.864 426.168 542.252 426.168 547.652V580.49H407.218V509.897H426.168V520.312H426.313C431.81 512.597 438.946 508.739 447.722 508.739ZM525.589 544.47C525.589 548.231 525.444 550.497 525.155 551.269H475.537C476.694 555.512 478.864 558.839 482.047 561.25C485.229 563.661 489.087 564.867 493.619 564.867C500.466 564.963 506.108 562.311 510.544 556.911L522.84 568.338C515.8 577.211 505.626 581.647 492.317 581.647C481.806 581.647 473.126 578.272 466.279 571.521C459.432 564.77 456.008 555.946 456.008 545.049C456.008 534.44 459.287 525.761 465.845 519.01C472.499 512.163 480.889 508.739 491.015 508.739C501.238 508.739 509.532 512.115 515.897 518.865C522.358 525.52 525.589 534.055 525.589 544.47ZM491.594 525.375C487.64 525.375 484.265 526.436 481.468 528.558C478.671 530.679 476.743 533.717 475.682 537.671H506.783C504.662 529.474 499.599 525.375 491.594 525.375ZM591.78 474.022H610.73V580.49H592.648V571.955H592.358C587.247 578.416 580.014 581.647 570.66 581.647C560.823 581.647 552.722 578.32 546.357 571.666C539.992 564.915 536.81 556.139 536.81 545.338C536.81 534.73 539.944 526.002 546.213 519.155C552.578 512.211 560.534 508.739 570.081 508.739C579.05 508.739 586.138 511.777 591.346 517.853H591.78V474.022ZM561.112 559.37C564.488 562.938 568.827 564.722 574.132 564.722C579.436 564.722 583.872 562.938 587.44 559.37C591.008 555.801 592.792 551.172 592.792 545.483C592.792 539.793 591.008 535.067 587.44 531.306C583.968 527.545 579.532 525.664 574.132 525.664C568.924 525.664 564.584 527.497 561.112 531.161C557.737 534.73 556.049 539.503 556.049 545.483C556.049 551.172 557.737 555.801 561.112 559.37ZM854.779 477.783H875.176V580.49H855.069V516.696H854.779L829.753 560.961H816.59L791.564 516.696H791.274V580.49H771.022V477.783H791.564L823.099 536.224H823.388L854.779 477.783Z" fill="#0B0C0D"/>
<path d="M667.856 596.691L653.68 590.182L708.939 466.644L722.971 473.154L667.856 596.691ZM905.985 581.647C902.706 581.647 899.909 580.538 897.595 578.32C895.376 576.102 894.267 573.402 894.267 570.219C894.267 567.037 895.376 564.336 897.595 562.118C899.909 559.804 902.706 558.646 905.985 558.646C909.167 558.646 911.916 559.804 914.23 562.118C916.545 564.336 917.702 567.037 917.702 570.219C917.702 573.402 916.545 576.102 914.23 578.32C911.916 580.538 909.167 581.647 905.985 581.647Z" fill="#09B989"/>
</svg>
